<svg width="20" height="20" viewBox="0 0 20 20" fill="none" xmlns="http://www.w3.org/2000/svg">
<path d="M8.42492 9.29169H6.21659C5.69159 9.29169 5.2666 9.71665 5.2666 10.2416V14.5083H8.42492V9.29169V9.29169Z" stroke="#35363A" stroke-width="1.5" stroke-miterlimit="10" stroke-linecap="round" stroke-linejoin="round"/>
<path d="M10.6342 5.49997H9.36747C8.84247 5.49997 8.41748 5.92498 8.41748 6.44998V14.5H11.5758V6.44998C11.5758 5.92498 11.1592 5.49997 10.6342 5.49997Z" stroke="#35363A" stroke-width="1.5" stroke-miterlimit="10" stroke-linecap="round" stroke-linejoin="round"/>
<path d="M13.7899 10.7083H11.5815V14.5H14.7399V11.6583C14.7316 11.1333 14.3065 10.7083 13.7899 10.7083Z" stroke="#35363A" stroke-width="1.5" stroke-miterlimit="10" stroke-linecap="round" stroke-linejoin="round"/>
<path d="M7.49984 18.3333H12.4998C16.6665 18.3333 18.3332 16.6667 18.3332 12.5V7.49999C18.3332 3.33332 16.6665 1.66666 12.4998 1.66666H7.49984C3.33317 1.66666 1.6665 3.33332 1.6665 7.49999V12.5C1.6665 16.6667 3.33317 18.3333 7.49984 18.3333Z" stroke="#35363A" stroke-width="1.5" stroke-linecap="round" stroke-linejoin="round"/>
</svg>
