<svg width="14" height="14" viewBox="0 0 14 14" fill="none" xmlns="http://www.w3.org/2000/svg">
<path fill-rule="evenodd" clip-rule="evenodd" d="M7.4469 8.76776L11.8662 13.1872C12.3544 13.6753 13.1459 13.6753 13.6341 13.1872C14.1222 12.699 14.1222 11.9076 13.6341 11.4194L9.21465 7.00001L13.6341 2.58059C14.1222 2.09244 14.1222 1.30098 13.6341 0.812824C13.1459 0.324674 12.3544 0.324674 11.8662 0.812824L7.4469 5.23224L3.02744 0.812816C2.53928 0.324658 1.74782 0.324658 1.25967 0.812816C0.771515 1.30097 0.771515 2.09242 1.25967 2.58058L5.67909 7.00001L1.25967 11.4194C0.771515 11.9076 0.771515 12.699 1.25967 13.1872C1.74782 13.6753 2.53928 13.6753 3.02744 13.1872L7.4469 8.76776Z" fill="#35363A"/>
</svg>
