<svg width="20" height="21" viewBox="0 0 20 21" fill="none" xmlns="http://www.w3.org/2000/svg">
<path d="M8.1999 3.8H11.7999C11.7999 3.32261 11.6103 2.86477 11.2727 2.52721C10.9351 2.18964 10.4773 2 9.9999 2C9.52251 2 9.06468 2.18964 8.72711 2.52721C8.38954 2.86477 8.1999 3.32261 8.1999 3.8ZM6.9999 3.8C6.9999 3.00435 7.31597 2.24129 7.87858 1.67868C8.44119 1.11607 9.20425 0.799999 9.9999 0.799999C10.7956 0.799999 11.5586 1.11607 12.1212 1.67868C12.6838 2.24129 12.9999 3.00435 12.9999 3.8H18.9999C19.159 3.8 19.3116 3.86321 19.4242 3.97574C19.5367 4.08826 19.5999 4.24087 19.5999 4.4C19.5999 4.55913 19.5367 4.71174 19.4242 4.82426C19.3116 4.93678 19.159 5 18.9999 5H17.7351L16.3023 17.4128C16.201 18.2902 15.7807 19.0998 15.1213 19.6875C14.462 20.2752 13.6096 20.5999 12.7263 20.6H7.2735C6.39025 20.5999 5.53784 20.2752 4.87847 19.6875C4.2191 19.0998 3.79878 18.2902 3.6975 17.4128L2.2647 5H0.999902C0.840772 5 0.68816 4.93678 0.575638 4.82426C0.463117 4.71174 0.399902 4.55913 0.399902 4.4C0.399902 4.24087 0.463117 4.08826 0.575638 3.97574C0.68816 3.86321 0.840772 3.8 0.999902 3.8H6.9999ZM4.8891 17.276C4.95681 17.8609 5.23716 18.4005 5.6768 18.7921C6.11645 19.1837 6.68472 19.4001 7.2735 19.4H12.7263C13.3151 19.4001 13.8834 19.1837 14.323 18.7921C14.7626 18.4005 15.043 17.8609 15.1107 17.276L16.5267 5H3.4731L4.8891 17.276ZM8.1999 8C8.35903 8 8.51165 8.06321 8.62417 8.17573C8.73669 8.28826 8.7999 8.44087 8.7999 8.6V15.8C8.7999 15.9591 8.73669 16.1117 8.62417 16.2243C8.51165 16.3368 8.35903 16.4 8.1999 16.4C8.04077 16.4 7.88816 16.3368 7.77564 16.2243C7.66312 16.1117 7.5999 15.9591 7.5999 15.8V8.6C7.5999 8.44087 7.66312 8.28826 7.77564 8.17573C7.88816 8.06321 8.04077 8 8.1999 8ZM12.3999 8.6C12.3999 8.44087 12.3367 8.28826 12.2242 8.17573C12.1116 8.06321 11.959 8 11.7999 8C11.6408 8 11.4882 8.06321 11.3756 8.17573C11.2631 8.28826 11.1999 8.44087 11.1999 8.6V15.8C11.1999 15.9591 11.2631 16.1117 11.3756 16.2243C11.4882 16.3368 11.6408 16.4 11.7999 16.4C11.959 16.4 12.1116 16.3368 12.2242 16.2243C12.3367 16.1117 12.3999 15.9591 12.3999 15.8V8.6Z" fill="#F63F3F"/>
</svg>
