<svg width="14" height="14" viewBox="0 0 14 14" fill="none" xmlns="http://www.w3.org/2000/svg">
<rect width="13.6" height="13.9" rx="6.8" fill="white"/>
<path d="M5.9 3.5H7.7C7.7 3.26131 7.60518 3.03239 7.4364 2.8636C7.26761 2.69482 7.03869 2.6 6.8 2.6C6.56131 2.6 6.33239 2.69482 6.1636 2.8636C5.99482 3.03239 5.9 3.26131 5.9 3.5ZM5.3 3.5C5.3 3.10218 5.45804 2.72064 5.73934 2.43934C6.02064 2.15804 6.40218 2 6.8 2C7.19782 2 7.57936 2.15804 7.86066 2.43934C8.14196 2.72064 8.3 3.10218 8.3 3.5H11.3C11.3796 3.5 11.4559 3.53161 11.5121 3.58787C11.5684 3.64413 11.6 3.72043 11.6 3.8C11.6 3.87956 11.5684 3.95587 11.5121 4.01213C11.4559 4.06839 11.3796 4.1 11.3 4.1H10.6676L9.9512 10.3064C9.90056 10.7451 9.6904 11.1499 9.36072 11.4437C9.03103 11.7376 8.60483 11.9 8.1632 11.9H5.4368C4.99517 11.9 4.56897 11.7376 4.23928 11.4437C3.9096 11.1499 3.69944 10.7451 3.6488 10.3064L2.9324 4.1H2.3C2.22044 4.1 2.14413 4.06839 2.08787 4.01213C2.03161 3.95587 2 3.87956 2 3.8C2 3.72043 2.03161 3.64413 2.08787 3.58787C2.14413 3.53161 2.22044 3.5 2.3 3.5H5.3ZM4.2446 10.238C4.27846 10.5304 4.41863 10.8002 4.63845 10.996C4.85827 11.1919 5.14241 11.3 5.4368 11.3H8.1632C8.45759 11.3 8.74173 11.1919 8.96155 10.996C9.18137 10.8002 9.32155 10.5304 9.3554 10.238L10.0634 4.1H3.5366L4.2446 10.238ZM5.9 5.6C5.97957 5.6 6.05587 5.63161 6.11213 5.68787C6.16839 5.74413 6.2 5.82043 6.2 5.9V9.5C6.2 9.57956 6.16839 9.65587 6.11213 9.71213C6.05587 9.76839 5.97957 9.8 5.9 9.8C5.82044 9.8 5.74413 9.76839 5.68787 9.71213C5.63161 9.65587 5.6 9.57956 5.6 9.5V5.9C5.6 5.82043 5.63161 5.74413 5.68787 5.68787C5.74413 5.63161 5.82044 5.6 5.9 5.6ZM8 5.9C8 5.82043 7.96839 5.74413 7.91213 5.68787C7.85587 5.63161 7.77957 5.6 7.7 5.6C7.62044 5.6 7.54413 5.63161 7.48787 5.68787C7.43161 5.74413 7.4 5.82043 7.4 5.9V9.5C7.4 9.57956 7.43161 9.65587 7.48787 9.71213C7.54413 9.76839 7.62044 9.8 7.7 9.8C7.77957 9.8 7.85587 9.76839 7.91213 9.71213C7.96839 9.65587 8 9.57956 8 9.5V5.9Z" fill="#F63F3F"/>
</svg>
