<svg width="16" height="17" viewBox="0 0 16 17" fill="none" xmlns="http://www.w3.org/2000/svg">
<path d="M6.00033 7.16667C6.73671 7.16667 7.33366 6.56971 7.33366 5.83333C7.33366 5.09695 6.73671 4.5 6.00033 4.5C5.26395 4.5 4.66699 5.09695 4.66699 5.83333C4.66699 6.56971 5.26395 7.16667 6.00033 7.16667Z" stroke="#35363A" stroke-width="1.2" stroke-linecap="round" stroke-linejoin="round"/>
<path d="M8.66634 1.83333H5.99967C2.66634 1.83333 1.33301 3.16667 1.33301 6.5V10.5C1.33301 13.8333 2.66634 15.1667 5.99967 15.1667H9.99967C13.333 15.1667 14.6663 13.8333 14.6663 10.5V7.16667" stroke="#35363A" stroke-width="1.2" stroke-linecap="round" stroke-linejoin="round"/>
<path d="M12 1.83333V5.83333L13.3333 4.5" stroke="#35363A" stroke-width="1.2" stroke-linecap="round" stroke-linejoin="round"/>
<path d="M12.0003 5.83333L10.667 4.5" stroke="#35363A" stroke-width="1.2" stroke-linecap="round" stroke-linejoin="round"/>
<path d="M1.78027 13.1333L5.06694 10.9267C5.59361 10.5733 6.35361 10.6133 6.82694 11.02L7.04694 11.2133C7.56694 11.66 8.40694 11.66 8.92694 11.2133L11.7003 8.83333C12.2203 8.38667 13.0603 8.38667 13.5803 8.83333L14.6669 9.76667" stroke="#35363A" stroke-width="1.2" stroke-linecap="round" stroke-linejoin="round"/>
</svg>
