<svg width="7" height="14" viewBox="0 0 7 14" fill="none" xmlns="http://www.w3.org/2000/svg">
<path d="M5.88617 7.28397L1.32017 12.984C1.26069 13.0682 1.18188 13.1369 1.09035 13.1843C0.998819 13.2317 0.897246 13.2564 0.794167 13.2564C0.691088 13.2564 0.589515 13.2317 0.497984 13.1843C0.406454 13.1369 0.32764 13.0682 0.268167 12.984C0.127012 12.7942 0.0507813 12.564 0.0507813 12.3275C0.0507813 12.091 0.127012 11.8607 0.268167 11.671L4.30817 6.62797L0.268167 1.58397C0.127012 1.3942 0.0507813 1.16399 0.0507813 0.927473C0.0507813 0.69096 0.127012 0.460746 0.268167 0.270973C0.32764 0.186781 0.406454 0.118094 0.497984 0.0706873C0.589515 0.0232801 0.691088 -0.00146294 0.794167 -0.00146294C0.897246 -0.00146294 0.998819 0.0232801 1.09035 0.0706873C1.18188 0.118094 1.26069 0.186781 1.32017 0.270973L5.88617 5.97097C6.02732 6.16075 6.10355 6.39096 6.10355 6.62747C6.10355 6.86399 6.02732 7.0942 5.88617 7.28397Z" fill="#B5B5C3"/>
</svg>
